# xmcd
#
# Track frame offsets:
#	150
#	29181
#	56392
#	87606
#	126412
#	151891
#	174094
#	204018
#	237470
#	258802
#	276685
#
# Disc length: 3975 seconds
# Revision: 0
# Processed by: cddbd v1.5.2PL0 Copyright (c) Steve Scherf et al.
# Submitted via: dBpowerAMP V12.0
#
DISCID=990f850b
DTITLE=Wiebrecht Ries - Die Philosophie der Antike CD1
DYEAR=1900
DGENRE=
TTITLE0=Über die natürliche Entwicklung der Welt
TTITLE1=Die Vorsokratiker
TTITLE2=Heraklit und die Weltordnung
TTITLE3=Die Wissenschaft von Sein
TTITLE4=Die Welt besteht aus Atomen
TTITLE5=Sokrates
TTITLE6=Die klassische Zeit - Platon
TTITLE7=Das Seiende
TTITLE8=Der Weg der Seele
TTITLE9=Unterwegs zur Erkenntnis
TTITLE10=Das Immer-Seiende und das Immer-Entstehende
EXTD=
EXTT0=
EXTT1=
EXTT2=
EXTT3=
EXTT4=
EXTT5=
EXTT6=
EXTT7=
EXTT8=
EXTT9=
EXTT10=
PLAYORDER=
